<svg xmlns="http://www.w3.org/2000/svg" viewBox="0 0 200 150">
  <path fill="hsl(145, 40%, 75%)" stroke="none" d="
  M 200 90
  L 200 0 0 0 0 90
  Q 0 114.8 17.5 132.4 35.1 150 60 150
  L 140 150
  Q 164.8 150 182.4 132.4 200 114.8 200 90
  M 142.15 22.2
  Q 144.35 20 147.45 20 150.6 20 152.75 22.2 154.95 24.4 154.95 27.5 154.95 30.6 152.75 32.8 151.4595703125 34.1205078125 149.8 34.65 148.3271484375 52.3728515625 135.35 65.35 120.7 80 100 80 79.3 80 64.65 65.35 51.681640625 52.381640625 50.2 34.65 48.5015625 34.1515625 47.15 32.8 44.95 30.6 44.95 27.5 44.95 24.4 47.15 22.2 49.35 20 52.45 20 55.6 20 57.75 22.2 59.95 24.4 59.95 27.5 59.95 30.6 57.75 32.8 56.6146484375 33.96171875 55.2 34.5 56.6232421875 50.2294921875 68.15 61.8 81.35 75 100 75 118.6 75 131.8 61.8 143.360546875 50.239453125 144.8 34.55 143.3412109375 33.9912109375 142.15 32.8 139.95 30.6 139.95 27.5 139.95 24.4 142.15 22.2 Z"/>
</svg>
