<svg width="20px" height="13px" viewBox="0 0 20 13" xmlns="http://www.w3.org/2000/svg">
  <g fill="#706F6D">
    <rect x="0" y="0" width="1" height="1"></rect>
    <rect x="0" y="2" width="1" height="1"></rect>
    <rect x="0" y="4" width="1" height="1"></rect>
    <rect x="0" y="6" width="1" height="1"></rect>
    <rect x="2" y="1" width="1" height="1"></rect>
    <rect x="2" y="3" width="1" height="1"></rect>
    <rect x="2" y="5" width="1" height="1"></rect>
    <rect x="4" y="0" width="1" height="1"></rect>
    <rect x="4" y="2" width="1" height="1"></rect>
    <rect x="4" y="4" width="1" height="1"></rect>
    <rect x="4" y="6" width="1" height="1"></rect>
    <rect x="6" y="1" width="1" height="1"></rect>
    <rect x="6" y="3" width="1" height="1"></rect>
    <rect x="6" y="5" width="1" height="1"></rect>
    <rect x="8" y="0" width="1" height="1"></rect>
    <rect x="8" y="2" width="1" height="1"></rect>
    <rect x="8" y="4" width="1" height="1"></rect>
    <rect x="8" y="6" width="1" height="1"></rect>
    <rect x="10" y="0" width="10" height="1"></rect>
    <rect x="10" y="2" width="10" height="1"></rect>
    <rect x="10" y="4" width="10" height="1"></rect>
    <rect x="10" y="6" width="10" height="1"></rect>
    <rect x="0" y="8" width="20" height="1"></rect>
    <rect x="0" y="10" width="20" height="1"></rect>
    <rect x="0" y="12" width="20" height="1"></rect>
  </g>
</svg>
